<svg xmlns="http://www.w3.org/2000/svg" viewBox="0 0 218.44 158.16"><defs><style>.cls-1{fill:#f9ed32;stroke:#060203;stroke-miterlimit:10;stroke-width:2px;}.cls-2{fill:#5083c3;}.cls-3{fill:#fbb040;}</style></defs><title>Asset 1</title><g id="Layer_2" data-name="Layer 2"><g id="Layer_1-2" data-name="Layer 1"><rect class="cls-1" x="1" y="1" width="216.44" height="156.16" rx="78.08" ry="78.08"/></g><g id="Layer_2-2" data-name="Layer 2"><path class="cls-2" d="M58.49,88c0,.77-.51,1.15-1.53,1.15H53.89A84.2,84.2,0,0,0,49,81a19.16,19.16,0,0,0-7-6.15h-7.3v12h4.23c1,0,1.56.39,1.56,1.15s-.52,1.15-1.56,1.15H29.23c-1,0-1.53-.38-1.53-1.15s.51-1.15,1.53-1.15h3.09V59.45H29.23q-1.53,0-1.53-1.14c0-.77.51-1.15,1.53-1.15H43.12A10.76,10.76,0,0,1,50,59.59,8,8,0,0,1,53.29,66q0,5.58-7.9,8.26A23.47,23.47,0,0,1,51,80q1.17,1.67,4.21,6.86H57C58,86.85,58.49,87.24,58.49,88ZM51,65.91a5.7,5.7,0,0,0-2.68-4.68,8.8,8.8,0,0,0-5.25-1.78H34.62V72.58h6.26a14.11,14.11,0,0,0,4.92-.88,8.69,8.69,0,0,0,4.1-2.78A5,5,0,0,0,51,65.91Z"/><path class="cls-2" d="M80.27,85.4a1.35,1.35,0,0,1-.43.91,12.43,12.43,0,0,1-5.42,2.81,22.32,22.32,0,0,1-6.12.93,13.76,13.76,0,0,1-9.74-3.72,12.47,12.47,0,0,1-4.07-9.51,11.32,11.32,0,0,1,3.85-8.75,12.93,12.93,0,0,1,9-3.42,12.33,12.33,0,0,1,9.33,3.72,13,13,0,0,1,3.52,9.49H56.78a11.07,11.07,0,0,0,3.76,7.22,11.55,11.55,0,0,0,7.74,2.68,15.67,15.67,0,0,0,10-3.09,1.53,1.53,0,0,1,.91-.41C79.91,84.26,80.27,84.64,80.27,85.4Zm-2.35-9.84a10,10,0,0,0-3.63-6.26,11.4,11.4,0,0,0-13.85,0,10.08,10.08,0,0,0-3.63,6.27Z"/><path class="cls-2" d="M104.32,88c0,.77-.52,1.15-1.56,1.15H82.42c-1,0-1.53-.38-1.53-1.15s.51-1.15,1.53-1.15h9V67.77h-6.7q-1.56,0-1.56-1.14c0-.77.52-1.16,1.56-1.16h9V86.85h9C103.8,86.85,104.32,87.24,104.32,88Z"/><path class="cls-2" d="M133.36,88c0,.77-.51,1.15-1.53,1.15h-6.15c-1,0-1.56-.38-1.56-1.15s.52-1.15,1.56-1.15h1.91V72.75a5.26,5.26,0,0,0-2-4.3,7,7,0,0,0-4.56-1.5,8.09,8.09,0,0,0-5,1.61,27.29,27.29,0,0,0-3.75,3.86V86.85H115c1,0,1.53.39,1.53,1.15S116,89.15,115,89.15h-7.49c-1,0-1.53-.38-1.53-1.15s.51-1.15,1.53-1.15h2.59V67.77h-1.94c-1,0-1.53-.39-1.53-1.16s.51-1.14,1.53-1.14h4.24v3.47q4.24-4.29,8.72-4.29a8.46,8.46,0,0,1,7.58,3.83,7.14,7.14,0,0,1,1.23,3.91V86.85h1.94C132.85,86.85,133.36,87.24,133.36,88Z"/><path class="cls-3" d="M133,104.42c-.1.4-.42.54-1,.4l-2.83-.71.6-2.41a6.61,6.61,0,0,1-6.09,1.54,6.32,6.32,0,0,1-3-1.72,6.52,6.52,0,0,1-1.7-3,7.12,7.12,0,0,1,0-3.55,7.05,7.05,0,0,1,1.72-3.14,6.71,6.71,0,0,1,3-1.88,6.41,6.41,0,0,1,3.39-.08,6.67,6.67,0,0,1,4.62,4.23l1.72-6.86-1.61-.4c-.55-.14-.77-.41-.67-.82s.42-.53,1-.4l2.83.72-4.25,16.9,1.62.41C132.86,103.75,133.08,104,133,104.42Zm-2.24-6.54a5.65,5.65,0,0,0-.54-4.26,5.35,5.35,0,0,0-7.53-1.89,5.85,5.85,0,0,0-1.94,7.75,5.11,5.11,0,0,0,3.35,2.57,5.18,5.18,0,0,0,4.19-.69A5.65,5.65,0,0,0,130.74,97.88Z"/><path class="cls-3" d="M153.51,101.93a.75.75,0,0,1-.24.49,6.76,6.76,0,0,1-2.94,1.53,12.17,12.17,0,0,1-3.34.51,7.5,7.5,0,0,1-5.3-2,6.78,6.78,0,0,1-2.22-5.18,6.17,6.17,0,0,1,2.1-4.76,7,7,0,0,1,4.92-1.86,6.73,6.73,0,0,1,5.08,2,7.07,7.07,0,0,1,1.91,5.17H140.72a6,6,0,0,0,2.05,3.93,6.27,6.27,0,0,0,4.21,1.46,8.5,8.5,0,0,0,5.44-1.69.85.85,0,0,1,.5-.22C153.31,101.3,153.51,101.51,153.51,101.93Zm-1.28-5.36a5.39,5.39,0,0,0-2-3.41,6.2,6.2,0,0,0-7.53,0,5.48,5.48,0,0,0-2,3.42Z"/><path class="cls-3" d="M171.81,101.93a.75.75,0,0,1-.24.49,6.8,6.8,0,0,1-2.95,1.53,12.05,12.05,0,0,1-3.33.51,7.47,7.47,0,0,1-5.3-2,6.78,6.78,0,0,1-2.22-5.18,6.17,6.17,0,0,1,2.1-4.76,7,7,0,0,1,4.91-1.86,6.71,6.71,0,0,1,5.08,2,7,7,0,0,1,1.92,5.17H159a6,6,0,0,0,2,3.93,6.3,6.3,0,0,0,4.22,1.46,8.52,8.52,0,0,0,5.44-1.69.83.83,0,0,1,.49-.22Q171.81,101.3,171.81,101.93Zm-1.28-5.36a5.39,5.39,0,0,0-2-3.41,6.21,6.21,0,0,0-7.54,0,5.48,5.48,0,0,0-2,3.42Z"/><path class="cls-3" d="M190.74,92.65a.58.58,0,0,1-.66.66,1.08,1.08,0,0,1-.64-.39,2.49,2.49,0,0,0-1.66-.91,6,6,0,0,0-3.22,1.5c-.49.38-1.41,1.16-2.75,2.34v6.86h5.54q.84,0,.84.63c0,.42-.28.62-.84.62h-9.81c-.56,0-.84-.2-.84-.61s.28-.61.84-.61h3V92.32h-2.31c-.56,0-.83-.21-.83-.63s.27-.62.83-.62h3.56v3.16A29.21,29.21,0,0,1,184.5,92a5.8,5.8,0,0,1,3.2-1.24,3.92,3.92,0,0,1,1.88.63C190.35,91.82,190.74,92.25,190.74,92.65Z"/><path class="cls-2" d="M167,84.14c0,.76-.52,1.14-1.55,1.14H157q-1.56,0-1.56-1.14c0-.77.52-1.15,1.56-1.15h4.23V55.59h-.49l-8.67,20.1h-2.62l-8.83-20.1h-.44V83h4.24c1,0,1.53.38,1.53,1.15s-.51,1.14-1.53,1.14H136q-1.53,0-1.53-1.14c0-.77.51-1.15,1.53-1.15h1.94V55.59h-1.45c-1,0-94.87-.38-94.87-1.15s93.85-1.15,94.87-1.15h5.64l8.69,19.8,8.56-19.8H165c1,0,1.56.38,1.56,1.15S166,55.59,165,55.59h-1.42V83h1.92C166.52,83,167,83.37,167,84.14Z"/><path class="cls-2" d="M190,80.37a1.38,1.38,0,0,1-.44.91,12.32,12.32,0,0,1-5.41,2.81,22.34,22.34,0,0,1-6.13.93,13.76,13.76,0,0,1-9.73-3.72,12.44,12.44,0,0,1-4.08-9.51A11.33,11.33,0,0,1,168.1,63a12.92,12.92,0,0,1,9-3.42,12.35,12.35,0,0,1,9.34,3.72A13,13,0,0,1,190,72.83H166.54A11,11,0,0,0,170.29,80,11.53,11.53,0,0,0,178,82.72a15.71,15.71,0,0,0,10-3.09,1.59,1.59,0,0,1,.91-.41C189.66,79.22,190,79.61,190,80.37Zm-2.35-9.84a9.93,9.93,0,0,0-3.63-6.26,11.4,11.4,0,0,0-13.85,0,10,10,0,0,0-3.63,6.27Z"/></g></g></svg>